<?xml version="1.0" encoding="UTF-8" standalone="no"?>
<svg width="52px" height="52px" viewBox="0 0 52 52" version="1.1" xmlns="http://www.w3.org/2000/svg" xmlns:xlink="http://www.w3.org/1999/xlink">
    <!-- Generator: Sketch 44 (41411) - http://www.bohemiancoding.com/sketch -->
    <title>Page 1</title>
    <desc>Created with Sketch.</desc>
    <defs></defs>
    <g id="Geek-Footer" stroke="none" stroke-width="1" fill="none" fill-rule="evenodd">
        <g id="Geek-Desktop-HD" transform="translate(-190.000000, -25.000000)" fill="#FEFEFE">
            <g id="Page-1" transform="translate(190.000000, 25.000000)">
                <path d="M4.32951681,-3.55271368e-14 L4.32951681,3.72189996 L0,3.72189996 L0,47.6390956 L4.32951681,47.6390956 L4.32951681,52.0001974 L46.9604124,52.0001974 L46.9604124,47.6390956 L51.9628876,47.6390956 L51.9628876,3.72189996 L46.9604124,3.72189996 L46.9604124,-3.55271368e-14 L4.32951681,-3.55271368e-14 Z M11.3206639,16.9846479 L16.9658943,16.9846479 L16.9658943,11.3394175 L40.6422237,11.3394175 L40.6422237,18.0794637 L18.0609075,18.0794637 L18.0609075,33.9207337 L33.9019801,33.9207337 L33.9019801,29.3701218 L25.0747563,29.3701218 L25.0747563,22.6300756 L40.6422237,22.6300756 L40.6422237,40.6607799 L16.9658943,40.6607799 L16.9658943,35.0153521 L11.3206639,35.0153521 L11.3206639,16.9846479 Z"></path>
            </g>
        </g>
    </g>
</svg>