<?xml version="1.0" encoding="UTF-8" standalone="no"?>
<svg width="25px" height="25px" viewBox="0 0 25 25" version="1.1" xmlns="http://www.w3.org/2000/svg" xmlns:xlink="http://www.w3.org/1999/xlink">
    <!-- Generator: Sketch 41 (35326) - http://www.bohemiancoding.com/sketch -->
    <title>shape</title>
    <desc>Created with Sketch.</desc>
    <defs></defs>
    <g id="Welcome" stroke="none" stroke-width="1" fill="none" fill-rule="evenodd">
        <g id="Desktop" transform="translate(-983.000000, -10.000000)" fill="#FFFFFF">
            <g id="Group">
                <path d="M1000.86919,19.2776285 L999.734321,19.2776285 L999.339832,19.6692585 C1000.73341,21.29438 1001.58098,23.4011777 1001.58098,25.7095077 C1001.58098,30.8407181 997.421703,35 992.290492,35 C987.159282,35 983,30.8407181 983,25.7095077 C983,20.5782974 987.159282,16.4190155 992.290492,16.4190155 C994.598822,16.4190155 996.704191,17.2651649 998.329312,18.6573095 L998.723801,18.2656795 L998.723801,17.1336687 L1005.86747,10 L1007.99857,12.131096 L1000.86919,19.2776285 L1000.86919,19.2776285 Z M992.290492,19.2776285 C988.737236,19.2776285 985.858613,22.1562518 985.858613,25.7095077 C985.858613,29.2613344 988.737236,32.141387 992.290492,32.141387 C995.842319,32.141387 998.722372,29.2613344 998.722372,25.7095077 C998.722372,22.1562518 995.842319,19.2776285 992.290492,19.2776285 L992.290492,19.2776285 Z" id="shape" transform="translate(995.499285, 22.500000) scale(1, -1) translate(-995.499285, -22.500000) "></path>
            </g>
        </g>
    </g>
</svg>