<?xml version="1.0" encoding="UTF-8" standalone="no"?>
<svg width="27px" height="23px" viewBox="0 0 27 23" version="1.1" xmlns="http://www.w3.org/2000/svg" xmlns:xlink="http://www.w3.org/1999/xlink">
    <!-- Generator: Sketch 41 (35326) - http://www.bohemiancoding.com/sketch -->
    <title>Shape</title>
    <desc>Created with Sketch.</desc>
    <defs></defs>
    <g id="Welcome" stroke="none" stroke-width="1" fill="none" fill-rule="evenodd">
        <g id="Desktop" transform="translate(-915.000000, -11.000000)" fill="#FFFFFF">
            <g id="Group">
                <g id="PCMAG_SOCIAL-01" transform="translate(885.000000, 11.500000)">
                    <path d="M54.2654057,6.234953 C54.2654057,13.5579654 48.6891397,22 38.4838316,22 C35.4751646,21.9982189 32.5303741,21.1328431 30,19.5068845 C30.4400998,19.558707 30.8829738,19.5834381 31.3261135,19.5809375 C33.8302189,19.5941708 36.2653807,18.7620379 38.2367297,17.2194717 C35.8645479,17.1781624 33.7816828,15.6333622 33.0558267,13.3769472 C33.876556,13.5286411 34.7208674,13.494904 35.5268456,13.2782099 C32.9406303,12.7541136 31.0811465,10.4837912 31.0790116,7.84766136 L31.0790116,7.77360842 C31.83616,8.19649134 32.6831437,8.43339842 33.5500305,8.46476915 C31.1092603,6.83676531 30.3586283,3.59223988 31.8367907,1.05947567 C34.6578025,4.51177942 38.8133977,6.6053459 43.2693716,6.81914838 C42.6892772,4.36245411 43.8430581,1.82435137 46.0765079,0.643971807 C48.3099578,-0.53640776 51.0595849,-0.0612584196 52.7663209,1.80000502 C54.0062912,1.55526552 55.1955927,1.1017453 56.2834045,0.458824092 C55.8609453,1.74598829 54.9821522,2.83455056 53.8123856,3.51967873 C54.9129634,3.39166004 55.9877301,3.0975878 57,2.64749972 C56.2565429,3.76211108 55.3192266,4.7346731 54.2324588,5.51910797 C54.2654057,5.75772298 54.2654057,5.99633799 54.2654057,6.234953 Z" id="Shape"></path>
                </g>
            </g>
        </g>
    </g>
</svg>